<svg width="43" height="41" viewBox="0 0 43 41" fill="none" xmlns="http://www.w3.org/2000/svg">
    <path d="M31.996 18.043v.438c-.03 1.292-.17 2.63-.415 4.015a31.318 31.318 0 0 1-.991 4.153 37.998 37.998 0 0 1-1.545 4.107 33.071 33.071 0 0 1-2.028 3.876 30.27 30.27 0 0 1-2.398 3.484A21.288 21.288 0 0 1 21.9 41l-3.434-1.984c.537-.908 1.021-1.9 1.452-2.977a34.207 34.207 0 0 0 1.198-3.345c.354-1.17.654-2.369.9-3.6.26-1.23.476-2.453.645-3.668.169-1.215.292-2.407.369-3.576.092-1.185.138-2.308.138-3.369 0-.83-.008-1.769-.023-2.815 0-1.061-.061-2.138-.184-3.23a21.524 21.524 0 0 0-.554-3.184c-.26-1.046-.653-1.976-1.175-2.792a5.899 5.899 0 0 0-1.983-1.96c-.799-.493-1.798-.74-2.996-.74-1.06 0-1.975.185-2.744.555a5.84 5.84 0 0 0-1.936 1.453c-.522.6-.945 1.3-1.268 2.1-.307.8-.553 1.646-.737 2.538a21.965 21.965 0 0 0-.346 2.676c-.046.892-.07 1.738-.07 2.538v6.437h9.936v3.807H9.152v8.076H0V17.05c0-2.414.384-4.66 1.153-6.737.768-2.076 1.851-3.876 3.25-5.399a14.944 14.944 0 0 1 5.071-3.599C11.457.438 13.662 0 16.09 0c1.645 0 3.181.238 4.61.715a14.483 14.483 0 0 1 3.942 1.938 15.003 15.003 0 0 1 3.159 2.93 16.445 16.445 0 0 1 2.328 3.692 19.711 19.711 0 0 1 1.429 4.245c.323 1.493.469 3 .438 4.523z" fill="#A7A7FF"/>
    <path d="M43 26.398c0 1.401-.183 2.637-.55 3.707-.351 1.07-.855 1.997-1.512 2.78a8.661 8.661 0 0 1-2.29 1.967c-.886.528-1.856.95-2.91 1.266a18.749 18.749 0 0 1-3.32.678c-1.162.136-2.345.204-3.552.204-1.588 0-3.054-.12-4.398-.362a17.271 17.271 0 0 1-3.802-1.085 18.117 18.117 0 0 1-3.413-1.967c-1.084-.798-2.169-1.77-3.253-2.916l4.673-4.68a10.932 10.932 0 0 0 1.764 2.894 13.75 13.75 0 0 0 2.45 2.26c.902.634 1.833 1.131 2.796 1.493.962.362 1.87.542 2.725.542 1.008 0 1.955-.067 2.84-.203.887-.15 1.658-.392 2.314-.723.657-.332 1.169-.769 1.535-1.311.382-.558.573-1.251.573-2.08 0-.633-.145-1.176-.435-1.628a3.945 3.945 0 0 0-1.146-1.153 6.79 6.79 0 0 0-1.58-.836 15.137 15.137 0 0 0-1.833-.566 28.497 28.497 0 0 0-1.81-.429 25.832 25.832 0 0 1-1.58-.407c-.901-.256-1.84-.527-2.818-.814-.977-.301-1.939-.64-2.886-1.017a22.22 22.22 0 0 1-2.703-1.289 10.545 10.545 0 0 1-2.222-1.74 8.048 8.048 0 0 1-1.535-2.329c-.381-.889-.572-1.906-.572-3.052 0-1.371.168-2.584.504-3.64.351-1.07.84-1.996 1.466-2.78a8.606 8.606 0 0 1 2.222-1.967 11.666 11.666 0 0 1 2.817-1.288 17.024 17.024 0 0 1 3.253-.7c1.16-.152 2.344-.227 3.55-.227 1.65 0 3.146.15 4.49.452 1.36.302 2.612.731 3.757 1.289a15.628 15.628 0 0 1 3.138 2.012A21.642 21.642 0 0 1 42.45 9.33l-4.673 4.68a10.392 10.392 0 0 0-1.535-2.94 11.226 11.226 0 0 0-2.153-2.238 9.332 9.332 0 0 0-2.497-1.446c-.87-.347-1.71-.52-2.52-.52-1.053 0-2.023.075-2.909.226-.885.135-1.649.369-2.29.7a3.62 3.62 0 0 0-1.466 1.312c-.351.542-.527 1.22-.527 2.034 0 .648.13 1.198.39 1.65.259.453.603.837 1.03 1.153.443.317.94.58 1.49.792a20.1 20.1 0 0 0 1.694.52c.596.15 1.176.286 1.741.407.58.105 1.107.226 1.58.361.917.256 1.879.528 2.887.814 1.008.287 2 .626 2.978 1.017.977.377 1.909.814 2.794 1.312a10.147 10.147 0 0 1 2.337 1.785 7.784 7.784 0 0 1 1.603 2.374c.397.89.596 1.914.596 3.075z" fill="#4F4FFF"/>
    <path fillRule="evenodd" clipRule="evenodd" d="M22.647 10.305c-.071-.357-.151-.711-.24-1.061-.261-1.045-.653-1.975-1.176-2.79a5.895 5.895 0 0 0-1.982-1.959c-.8-.492-1.798-.737-2.997-.737-1.06 0-1.975.184-2.743.553a5.84 5.84 0 0 0-1.937 1.452 7.348 7.348 0 0 0-1.267 2.098 16.13 16.13 0 0 0-.719 2.444H1.153C1.92 8.23 3.005 6.431 4.403 4.91a14.945 14.945 0 0 1 5.072-3.596C11.457.438 13.662 0 16.09 0c1.644 0 3.18.238 4.61.715a14.49 14.49 0 0 1 3.942 1.936 15 15 0 0 1 3.158 2.928 16.432 16.432 0 0 1 2.329 3.688c.16.34.31.687.451 1.038h-7.934z" fill="#A7A7FF"/>
</svg>
