<svg width="24" height="24" viewBox="0 0 24 24" fill="none" xmlns="http://www.w3.org/2000/svg">
    <path d="m8.704 22.877 2.586-2.2a1.125 1.125 0 0 1 1.42 0l2.586 2.2c.6.303 1.332 0 1.554-.65l.488-1.494c.123-.359 0-.886-.266-1.155l-2.52-2.56c-.188-.179-.332-.538-.332-.796v-3.199c0-.471.344-.696.777-.516l5.45 2.38c.854.37 1.553-.09 1.553-1.033v-1.448c0-.752-.555-1.616-1.243-1.908l-6.204-2.705a.622.622 0 0 1-.333-.516V3.91c0-1.055-.766-2.301-1.698-2.784a1.164 1.164 0 0 0-1.055 0c-.932.483-1.698 1.74-1.698 2.795v3.367a.623.623 0 0 1-.333.516L3.243 10.51C2.555 10.789 2 11.654 2 12.406v1.448c0 .942.7 1.403 1.554 1.032l5.45-2.38c.421-.19.776.046.776.517v3.199c0 .258-.144.617-.322.796l-2.519 2.56c-.266.269-.388.785-.266 1.155l.488 1.493c.2.651.932.965 1.543.651z" stroke="#1A1D2C" stroke-width="1.5" stroke-linecap="round" stroke-linejoin="round"/>
</svg>
